<?xml version="1.0" standalone="no"?>
<svg viewBox="0 0 200 200" xmlns="http://www.w3.org/2000/svg">
  <path fill="#000000" d="M43.7,-72C52.3,-62.5,52.1,-43.1,55.2,-27.7C58.3,-12.4,64.8,-1.1,66.5,11.8C68.2,24.8,65.1,39.3,56.5,48.6C47.9,57.9,33.6,62.1,19.2,67C4.8,71.8,-9.8,77.5,-22.2,74.4C-34.7,71.4,-45,59.6,-57.1,48.1C-69.2,36.6,-83.2,25.3,-87,11.4C-90.7,-2.5,-84.3,-19,-76.7,-34.8C-69.1,-50.5,-60.4,-65.5,-47.4,-73.1C-34.5,-80.7,-17.2,-80.9,0.1,-81.1C17.5,-81.4,35.1,-81.6,43.7,-72Z" transform="translate(100 100)" />
</svg>
