<?xml version="1.0" encoding="utf-8"?>
<!DOCTYPE svg PUBLIC "-//W3C//DTD SVG 20010904//EN" "http://www.w3.org/TR/2001/REC-SVG-20010904/DTD/svg10.dtd">
<svg version="1.0" xmlns="http://www.w3.org/2000/svg" width="48px" height="48px" viewBox="0 0 48 48" preserveAspectRatio="xMidYMid meet">
 <g fill="#5e7b89">
  <path d="M24.7 40.3 c-0.4 -0.3 -0.7 -2.2 -0.7 -4.1 0 -3.3 0.1 -3.4 3.1 -2.8 1.7 0.3 3.8 0.6 4.5 0.6 0.8 0 1.4 0.7 1.4 1.5 0 0.8 -0.6 1.5 -1.4 1.5 -0.7 0 -1.6 0.9 -1.9 2 -0.5 1.9 -3.6 2.7 -5 1.3z"/>
  <path d="M5 39.6 c0 -0.3 1 -2.1 2.1 -4.1 l2.2 -3.6 -2.2 -1.5 c-2.6 -1.9 -2.6 -3.2 0.1 -8.9 2.3 -4.7 4.2 -5.5 7.6 -3.4 1.2 0.8 3.6 0.9 6.5 0.5 4 -0.6 4.6 -1.1 5.2 -3.6 1 -4.4 4 -6 11.2 -6 l6.3 0 0 7.5 0 7.5 -10 0 c-5.5 0 -10 -0.4 -10 -0.9 0 -0.5 -1.7 -1.1 -3.7 -1.3 -2.1 -0.3 -4.5 -0.8 -5.4 -1.2 -1.2 -0.5 -2 0.3 -3.3 3.2 -1.6 3.6 -1.7 4.2 -0.3 6.3 2.1 3.2 3.3 9.9 1.8 9.9 -0.6 0 -1.4 -1.2 -1.7 -2.7 l-0.7 -2.6 -1.9 2.6 c-1.7 2.4 -3.8 3.6 -3.8 2.3z"/>
 </g>
 <g fill="#f44336">
  <path d="M24.7 36.3 c-0.4 -0.3 -0.7 -3.7 -0.7 -7.4 0 -6 -0.2 -6.7 -2.2 -7.2 -1.8 -0.5 -1.9 -0.8 -0.8 -2.1 0.7 -0.9 2.1 -1.6 3 -1.6 1.2 0 2.1 -1 2.5 -3 1 -4.4 3.9 -6 11.2 -6 3.5 0 6.3 0.4 6.3 1 0 0.6 -3.2 1 -7.5 1 l-7.4 0 -1 3.7 c-1.8 6.4 -1.9 6.3 7.4 6.3 l8.5 0 0 8 0 8 -9.3 0 c-5.2 0 -9.7 -0.3 -10 -0.7z"/>
 </g>
 <g fill="#c62828">
  <path d="M26.5 34 c-0.4 -0.6 2.7 -1 8.4 -1 5.4 0 9.1 0.4 9.1 1 0 0.6 -3.5 1 -8.4 1 -4.7 0 -8.8 -0.4 -9.1 -1z"/>
  <path d="M35.7 29.3 c-0.4 -0.3 -0.7 -1.5 -0.7 -2.5 0 -1.5 0.8 -1.8 4.5 -1.8 4.1 0 4.5 0.2 4.5 2.5 0 2.2 -0.4 2.5 -3.8 2.5 -2.1 0 -4.2 -0.3 -4.5 -0.7z"/>
 </g>
 <g fill="#ffb74d">
  <path d="M26.4 28.5 c-0.4 -0.9 -0.2 -2.1 0.4 -2.7 1.5 -1.5 4.4 -0.1 4 1.9 -0.4 2.3 -3.6 2.9 -4.4 0.8z"/>
  <path d="M12 12.5 c0 -2 0.5 -2.5 2.5 -2.5 2 0 2.5 0.5 2.5 2.5 0 2 -0.5 2.5 -2.5 2.5 -2 0 -2.5 -0.5 -2.5 -2.5z"/>
 </g>
</svg>