<?xml version="1.0" encoding="utf-8"?>
<!DOCTYPE svg PUBLIC "-//W3C//DTD SVG 20010904//EN" "http://www.w3.org/TR/2001/REC-SVG-20010904/DTD/svg10.dtd">
<svg version="1.0" xmlns="http://www.w3.org/2000/svg" width="48px" height="48px" viewBox="0 0 48 48" preserveAspectRatio="xMidYMid meet">
 <g fill="#383f45">
  <path d="M24.7 40.3 c-0.4 -0.3 -0.7 -2.2 -0.7 -4.1 0 -3.3 0.1 -3.4 3.1 -2.8 1.7 0.3 3.8 0.6 4.5 0.6 0.8 0 1.4 0.7 1.4 1.5 0 0.8 -0.6 1.5 -1.4 1.5 -0.7 0 -1.6 0.9 -1.9 2 -0.5 1.9 -3.6 2.7 -5 1.3z"/>
 </g>
 <g fill="#e43e35">
  <path d="M24.7 36.3 c-0.4 -0.3 -0.7 -3.7 -0.7 -7.5 l0 -6.8 -3.5 0 c-5.3 0 -4.6 -2.6 0.9 -3.4 3.9 -0.6 4.5 -1.1 5.1 -3.6 1 -4.4 4 -6 11.2 -6 6.1 0 6.3 0.1 6.3 2.5 0 2.4 -0.3 2.5 -5.9 2.5 -5.5 0 -7.1 0.8 -7.1 3.6 0 0.2 2.9 0.4 6.5 0.4 l6.5 0 0 9.5 0 9.5 -9.3 0 c-5.2 0 -9.7 -0.3 -10 -0.7z"/>
 </g>
 <g fill="#617986">
  <path d="M5 39.6 c0 -0.3 1 -2.1 2.1 -4.1 l2.2 -3.6 -2.2 -1.5 c-2.6 -1.9 -2.6 -3.2 0.1 -8.9 1.6 -3.3 2.8 -4.5 4.4 -4.5 1.3 0 2.6 0.5 2.9 1 0.3 0.6 1.9 1 3.4 1 1.9 0 2.8 0.5 2.8 1.6 0 1.6 -2.1 1.6 -5.8 0 -1.1 -0.5 -2 0.3 -3.3 3.2 -1.6 3.6 -1.7 4.2 -0.3 6.3 2.1 3.2 3.3 9.9 1.8 9.9 -0.6 0 -1.4 -1.2 -1.7 -2.7 l-0.7 -2.6 -1.9 2.6 c-1.7 2.4 -3.8 3.6 -3.8 2.3z"/>
  <path d="M27 19.8 c0 -0.7 0.5 -3 1.1 -5 l1 -3.8 7.4 0 7.5 0 0 5 0 5 -8.5 0 c-6.1 0 -8.5 -0.3 -8.5 -1.2z"/>
 </g>
 <g fill="#ae5e5e">
 </g>
 <g fill="#ffcc52">
  <path d="M26.4 28.5 c-0.4 -0.9 -0.2 -2.1 0.4 -2.7 1.5 -1.5 4.4 -0.1 4 1.9 -0.4 2.3 -3.6 2.9 -4.4 0.8z"/>
  <path d="M12 12.5 c0 -2 0.5 -2.5 2.5 -2.5 2 0 2.5 0.5 2.5 2.5 0 2 -0.5 2.5 -2.5 2.5 -2 0 -2.5 -0.5 -2.5 -2.5z"/>
 </g>
 <g fill="#fde1aa">
  <path d="M29.7 27.6 c-0.6 -1.5 -1 -1.6 -2.2 -0.6 -1.1 0.9 -1.5 0.9 -1.5 0.1 0 -1.6 2.9 -2.6 4.2 -1.3 0.6 0.6 0.8 1.6 0.6 2.3 -0.3 0.9 -0.7 0.7 -1.1 -0.5z"/>
 </g>
</svg>